<?xml version="1.0" encoding="UTF-8" ?>
<svg version="1.1" width="23" height="23" xmlns="http://www.w3.org/2000/svg" shape-rendering="crispEdges">
<rect x="6" y="2" width="1" height="17" fill="#222034" />
<rect x="7" y="3" width="1" height="1" fill="#222034" />
<rect x="7" y="4" width="1" height="14" fill="#FFFFFF" />
<rect x="8" y="4" width="1" height="1" fill="#222034" />
<rect x="8" y="5" width="1" height="12" fill="#FFFFFF" />
<rect x="9" y="5" width="1" height="1" fill="#222034" />
<rect x="9" y="6" width="1" height="10" fill="#FFFFFF" />
<rect x="10" y="6" width="1" height="1" fill="#222034" />
<rect x="10" y="7" width="1" height="8" fill="#FFFFFF" />
<rect x="11" y="7" width="1" height="1" fill="#222034" />
<rect x="11" y="8" width="1" height="8" fill="#FFFFFF" />
<rect x="12" y="8" width="1" height="1" fill="#222034" />
<rect x="12" y="9" width="1" height="9" fill="#FFFFFF" />
<rect x="13" y="9" width="1" height="1" fill="#222034" />
<rect x="13" y="10" width="1" height="4" fill="#FFFFFF" />
<rect x="14" y="10" width="1" height="1" fill="#222034" />
<rect x="14" y="11" width="1" height="3" fill="#FFFFFF" />
<rect x="15" y="11" width="1" height="1" fill="#222034" />
<rect x="15" y="12" width="1" height="2" fill="#FFFFFF" />
<rect x="16" y="12" width="1" height="1" fill="#222034" />
<rect x="16" y="13" width="1" height="1" fill="#FFFFFF" />
<rect x="17" y="13" width="1" height="2" fill="#222034" />
<rect x="13" y="14" width="4" height="1" fill="#222034" />
<rect x="10" y="15" width="1" height="1" fill="#222034" />
<rect x="13" y="15" width="1" height="1" fill="#222034" />
<rect x="9" y="16" width="1" height="1" fill="#222034" />
<rect x="11" y="16" width="1" height="2" fill="#222034" />
<rect x="13" y="16" width="1" height="4" fill="#FFFFFF" />
<rect x="14" y="16" width="1" height="2" fill="#222034" />
<rect x="8" y="17" width="1" height="1" fill="#222034" />
<rect x="7" y="18" width="1" height="1" fill="#222034" />
<rect x="12" y="18" width="1" height="2" fill="#222034" />
<rect x="14" y="18" width="1" height="2" fill="#FFFFFF" />
<rect x="15" y="18" width="1" height="2" fill="#222034" />
<rect x="13" y="20" width="2" height="1" fill="#222034" />
</svg>